<svg width="640" height="360" viewBox="0 0 640 360" fill="none" xmlns="http://www.w3.org/2000/svg">
<g clip-path="url(#clip0_615_47)">
<path fill-rule="evenodd" clip-rule="evenodd" d="M640 0L216.114 0C216.114 0 250.2 25.9926 268.396 54.484C284.47 79.6532 284.439 118.748 273.618 143.903C259.435 176.872 217.858 191.034 235.084 232.844C252.31 274.653 253.101 295.524 227.909 305.479C167.624 329.301 103.379 231.854 56.7835 190.507C32.3458 168.821 -0.0887762 155.741 -0.0887762 155.741L-0.0887865 360.057L640 360.057L640 0Z" fill="url(#paint0_linear_615_47)"/>
<ellipse cx="554" cy="180" rx="234" ry="245" transform="rotate(-180 554 180)" fill="url(#paint1_linear_615_47)"/>
</g>
<defs>
<linearGradient id="paint0_linear_615_47" x1="141.055" y1="0.303744" x2="415.864" y2="417.156" gradientUnits="userSpaceOnUse">
<stop stop-color="#345778"/>
<stop offset="0.536458" stop-color="#4F84B5"/>
<stop offset="0.822917" stop-color="#90C8FC"/>
<stop offset="1" stop-color="white"/>
<stop offset="1" stop-color="white"/>
</linearGradient>
<linearGradient id="paint1_linear_615_47" x1="775.5" y1="-82.5" x2="448.451" y2="357.143" gradientUnits="userSpaceOnUse">
<stop offset="0.135373" stop-color="#F0F8FC"/>
<stop offset="0.250756" stop-color="#90C8FC"/>
<stop offset="0.381618" stop-color="#679DCF"/>
<stop offset="0.52989" stop-color="#4F84B5"/>
<stop offset="0.701575" stop-color="#3F6991"/>
<stop offset="0.829751" stop-color="#345778"/>
<stop offset="1" stop-color="#345778"/>
</linearGradient>
<clipPath id="clip0_615_47">
<rect width="640" height="360" fill="white"/>
</clipPath>
</defs>
</svg>
