<svg width="501" height="206" viewBox="0 0 501 206" fill="none" xmlns="http://www.w3.org/2000/svg">
<path d="M127.312 182.227H129.595L135.417 196.716L141.228 182.227H143.523L136.296 200H134.514L127.312 182.227ZM126.567 182.227H128.582L128.911 193.066V200H126.567V182.227ZM142.241 182.227H144.255V200H141.912V193.066L142.241 182.227ZM155.84 197.742V190.942C155.84 190.422 155.734 189.97 155.522 189.587C155.319 189.197 155.01 188.896 154.595 188.684C154.18 188.472 153.667 188.367 153.057 188.367C152.487 188.367 151.986 188.464 151.555 188.66C151.132 188.855 150.798 189.111 150.554 189.429C150.318 189.746 150.2 190.088 150.2 190.454H147.942C147.942 189.982 148.064 189.514 148.308 189.05C148.552 188.586 148.902 188.167 149.358 187.793C149.822 187.41 150.375 187.109 151.018 186.89C151.669 186.662 152.393 186.548 153.191 186.548C154.151 186.548 154.998 186.711 155.73 187.036C156.471 187.362 157.048 187.854 157.463 188.513C157.887 189.164 158.098 189.982 158.098 190.967V197.119C158.098 197.559 158.135 198.027 158.208 198.523C158.289 199.019 158.407 199.447 158.562 199.805V200H156.206C156.092 199.74 156.003 199.394 155.938 198.962C155.872 198.523 155.84 198.116 155.84 197.742ZM156.23 191.992L156.255 193.579H153.972C153.329 193.579 152.756 193.632 152.251 193.738C151.746 193.835 151.323 193.986 150.981 194.189C150.64 194.393 150.379 194.649 150.2 194.958C150.021 195.26 149.932 195.614 149.932 196.021C149.932 196.436 150.025 196.814 150.212 197.156C150.4 197.498 150.68 197.77 151.055 197.974C151.437 198.169 151.905 198.267 152.458 198.267C153.15 198.267 153.761 198.12 154.29 197.827C154.819 197.534 155.238 197.176 155.547 196.753C155.864 196.33 156.035 195.919 156.06 195.52L157.024 196.606C156.967 196.948 156.812 197.327 156.56 197.742C156.308 198.157 155.97 198.556 155.547 198.938C155.132 199.312 154.635 199.626 154.058 199.878C153.488 200.122 152.845 200.244 152.129 200.244C151.234 200.244 150.448 200.069 149.773 199.719C149.106 199.369 148.585 198.901 148.21 198.315C147.844 197.721 147.661 197.058 147.661 196.326C147.661 195.618 147.799 194.995 148.076 194.458C148.353 193.913 148.752 193.461 149.272 193.103C149.793 192.737 150.42 192.46 151.152 192.273C151.885 192.086 152.703 191.992 153.606 191.992H156.23ZM167.18 186.792V188.525H160.039V186.792H167.18ZM162.456 183.582H164.714V196.729C164.714 197.176 164.784 197.514 164.922 197.742C165.06 197.97 165.239 198.12 165.459 198.193C165.679 198.267 165.915 198.303 166.167 198.303C166.354 198.303 166.549 198.287 166.753 198.254C166.965 198.214 167.123 198.181 167.229 198.157L167.241 200C167.062 200.057 166.826 200.11 166.533 200.159C166.248 200.216 165.903 200.244 165.496 200.244C164.942 200.244 164.434 200.134 163.97 199.915C163.506 199.695 163.136 199.329 162.859 198.816C162.59 198.295 162.456 197.595 162.456 196.716V183.582ZM172.087 181.25V200H169.829V181.25H172.087ZM171.55 192.896L170.61 192.859C170.618 191.956 170.753 191.121 171.013 190.356C171.274 189.583 171.64 188.912 172.112 188.342C172.584 187.773 173.145 187.333 173.796 187.024C174.456 186.707 175.184 186.548 175.981 186.548C176.632 186.548 177.218 186.637 177.739 186.816C178.26 186.987 178.704 187.264 179.07 187.646C179.444 188.029 179.729 188.525 179.924 189.136C180.12 189.738 180.217 190.474 180.217 191.345V200H177.947V191.321C177.947 190.629 177.845 190.076 177.642 189.661C177.438 189.237 177.141 188.932 176.75 188.745C176.36 188.55 175.88 188.452 175.31 188.452C174.749 188.452 174.236 188.57 173.772 188.806C173.316 189.042 172.922 189.368 172.588 189.783C172.262 190.198 172.006 190.674 171.819 191.211C171.64 191.74 171.55 192.301 171.55 192.896ZM189.08 200.244C188.16 200.244 187.326 200.09 186.577 199.78C185.837 199.463 185.198 199.019 184.661 198.45C184.132 197.88 183.725 197.205 183.44 196.423C183.155 195.642 183.013 194.788 183.013 193.86V193.347C183.013 192.273 183.171 191.317 183.489 190.479C183.806 189.632 184.237 188.916 184.783 188.33C185.328 187.744 185.946 187.301 186.638 187C187.33 186.698 188.046 186.548 188.787 186.548C189.731 186.548 190.544 186.711 191.228 187.036C191.92 187.362 192.485 187.817 192.925 188.403C193.364 188.981 193.69 189.665 193.901 190.454C194.113 191.235 194.219 192.09 194.219 193.018V194.031H184.355V192.188H191.96V192.017C191.928 191.431 191.806 190.861 191.594 190.308C191.391 189.754 191.065 189.299 190.618 188.94C190.17 188.582 189.56 188.403 188.787 188.403C188.274 188.403 187.802 188.513 187.371 188.733C186.939 188.944 186.569 189.262 186.26 189.685C185.951 190.108 185.71 190.625 185.54 191.235C185.369 191.846 185.283 192.55 185.283 193.347V193.86C185.283 194.486 185.369 195.076 185.54 195.63C185.719 196.175 185.975 196.655 186.309 197.07C186.65 197.485 187.061 197.811 187.542 198.047C188.03 198.283 188.583 198.401 189.202 198.401C189.999 198.401 190.675 198.238 191.228 197.913C191.781 197.587 192.266 197.152 192.681 196.606L194.048 197.693C193.763 198.124 193.401 198.535 192.961 198.926C192.522 199.316 191.981 199.634 191.338 199.878C190.703 200.122 189.95 200.244 189.08 200.244ZM199.102 189.417V200H196.831V186.792H198.979L199.102 189.417ZM198.638 192.896L197.588 192.859C197.596 191.956 197.714 191.121 197.942 190.356C198.17 189.583 198.507 188.912 198.955 188.342C199.403 187.773 199.96 187.333 200.627 187.024C201.295 186.707 202.068 186.548 202.947 186.548C203.565 186.548 204.135 186.637 204.656 186.816C205.177 186.987 205.628 187.26 206.011 187.634C206.393 188.009 206.69 188.489 206.902 189.075C207.113 189.661 207.219 190.369 207.219 191.199V200H204.961V191.309C204.961 190.617 204.843 190.063 204.607 189.648C204.379 189.233 204.054 188.932 203.63 188.745C203.207 188.55 202.711 188.452 202.141 188.452C201.474 188.452 200.916 188.57 200.469 188.806C200.021 189.042 199.663 189.368 199.395 189.783C199.126 190.198 198.931 190.674 198.809 191.211C198.695 191.74 198.638 192.301 198.638 192.896ZM207.195 191.65L205.681 192.114C205.689 191.39 205.807 190.694 206.035 190.027C206.271 189.36 206.609 188.765 207.048 188.245C207.496 187.724 208.045 187.313 208.696 187.012C209.347 186.702 210.092 186.548 210.93 186.548C211.638 186.548 212.265 186.641 212.81 186.829C213.363 187.016 213.827 187.305 214.202 187.695C214.584 188.078 214.873 188.57 215.068 189.172C215.264 189.775 215.361 190.491 215.361 191.321V200H213.091V191.296C213.091 190.556 212.973 189.982 212.737 189.575C212.509 189.16 212.183 188.871 211.76 188.708C211.345 188.538 210.849 188.452 210.271 188.452C209.775 188.452 209.335 188.538 208.953 188.708C208.57 188.879 208.249 189.115 207.988 189.417C207.728 189.709 207.528 190.047 207.39 190.43C207.26 190.812 207.195 191.219 207.195 191.65ZM226.567 197.742V190.942C226.567 190.422 226.462 189.97 226.25 189.587C226.047 189.197 225.737 188.896 225.322 188.684C224.907 188.472 224.395 188.367 223.784 188.367C223.215 188.367 222.714 188.464 222.283 188.66C221.86 188.855 221.526 189.111 221.282 189.429C221.046 189.746 220.928 190.088 220.928 190.454H218.669C218.669 189.982 218.792 189.514 219.036 189.05C219.28 188.586 219.63 188.167 220.085 187.793C220.549 187.41 221.103 187.109 221.746 186.89C222.397 186.662 223.121 186.548 223.918 186.548C224.879 186.548 225.725 186.711 226.458 187.036C227.198 187.362 227.776 187.854 228.191 188.513C228.614 189.164 228.826 189.982 228.826 190.967V197.119C228.826 197.559 228.862 198.027 228.936 198.523C229.017 199.019 229.135 199.447 229.29 199.805V200H226.934C226.82 199.74 226.73 199.394 226.665 198.962C226.6 198.523 226.567 198.116 226.567 197.742ZM226.958 191.992L226.982 193.579H224.7C224.057 193.579 223.483 193.632 222.979 193.738C222.474 193.835 222.051 193.986 221.709 194.189C221.367 194.393 221.107 194.649 220.928 194.958C220.749 195.26 220.659 195.614 220.659 196.021C220.659 196.436 220.753 196.814 220.94 197.156C221.127 197.498 221.408 197.77 221.782 197.974C222.165 198.169 222.633 198.267 223.186 198.267C223.878 198.267 224.488 198.12 225.017 197.827C225.546 197.534 225.965 197.176 226.274 196.753C226.592 196.33 226.763 195.919 226.787 195.52L227.751 196.606C227.694 196.948 227.54 197.327 227.288 197.742C227.035 198.157 226.698 198.556 226.274 198.938C225.859 199.312 225.363 199.626 224.785 199.878C224.215 200.122 223.573 200.244 222.856 200.244C221.961 200.244 221.176 200.069 220.5 199.719C219.833 199.369 219.312 198.901 218.938 198.315C218.572 197.721 218.389 197.058 218.389 196.326C218.389 195.618 218.527 194.995 218.804 194.458C219.08 193.913 219.479 193.461 220 193.103C220.521 192.737 221.147 192.46 221.88 192.273C222.612 192.086 223.43 191.992 224.333 191.992H226.958ZM237.908 186.792V188.525H230.767V186.792H237.908ZM233.184 183.582H235.442V196.729C235.442 197.176 235.511 197.514 235.649 197.742C235.788 197.97 235.967 198.12 236.187 198.193C236.406 198.267 236.642 198.303 236.895 198.303C237.082 198.303 237.277 198.287 237.48 198.254C237.692 198.214 237.851 198.181 237.957 198.157L237.969 200C237.79 200.057 237.554 200.11 237.261 200.159C236.976 200.216 236.63 200.244 236.223 200.244C235.67 200.244 235.161 200.134 234.697 199.915C234.233 199.695 233.863 199.329 233.586 198.816C233.318 198.295 233.184 197.595 233.184 196.716V183.582ZM243.01 186.792V200H240.74V186.792H243.01ZM240.569 183.289C240.569 182.922 240.679 182.613 240.898 182.361C241.126 182.109 241.46 181.982 241.899 181.982C242.331 181.982 242.66 182.109 242.888 182.361C243.124 182.613 243.242 182.922 243.242 183.289C243.242 183.639 243.124 183.94 242.888 184.192C242.66 184.436 242.331 184.558 241.899 184.558C241.46 184.558 241.126 184.436 240.898 184.192C240.679 183.94 240.569 183.639 240.569 183.289ZM251.921 198.389C252.458 198.389 252.955 198.279 253.411 198.059C253.866 197.839 254.241 197.538 254.534 197.156C254.827 196.765 254.993 196.322 255.034 195.825H257.183C257.142 196.606 256.877 197.335 256.389 198.01C255.909 198.678 255.278 199.219 254.497 199.634C253.716 200.041 252.857 200.244 251.921 200.244C250.929 200.244 250.062 200.069 249.321 199.719C248.589 199.369 247.979 198.889 247.49 198.279C247.01 197.668 246.648 196.969 246.404 196.179C246.168 195.382 246.05 194.539 246.05 193.652V193.14C246.05 192.253 246.168 191.414 246.404 190.625C246.648 189.827 247.01 189.124 247.49 188.513C247.979 187.903 248.589 187.423 249.321 187.073C250.062 186.723 250.929 186.548 251.921 186.548C252.955 186.548 253.858 186.759 254.631 187.183C255.404 187.598 256.011 188.167 256.45 188.892C256.898 189.608 257.142 190.422 257.183 191.333H255.034C254.993 190.788 254.839 190.295 254.57 189.856C254.31 189.417 253.952 189.067 253.496 188.806C253.049 188.538 252.524 188.403 251.921 188.403C251.23 188.403 250.648 188.542 250.176 188.818C249.712 189.087 249.342 189.453 249.065 189.917C248.796 190.373 248.601 190.881 248.479 191.443C248.365 191.996 248.308 192.562 248.308 193.14V193.652C248.308 194.23 248.365 194.8 248.479 195.361C248.593 195.923 248.784 196.431 249.053 196.887C249.329 197.343 249.7 197.709 250.164 197.986C250.636 198.254 251.222 198.389 251.921 198.389ZM267.412 196.497C267.412 196.171 267.339 195.87 267.192 195.593C267.054 195.308 266.765 195.052 266.326 194.824C265.894 194.588 265.243 194.385 264.373 194.214C263.64 194.059 262.977 193.876 262.383 193.665C261.797 193.453 261.296 193.197 260.881 192.896C260.474 192.594 260.161 192.24 259.941 191.833C259.722 191.427 259.612 190.951 259.612 190.405C259.612 189.884 259.726 189.392 259.954 188.928C260.19 188.464 260.519 188.053 260.942 187.695C261.374 187.337 261.89 187.056 262.493 186.853C263.095 186.65 263.766 186.548 264.507 186.548C265.565 186.548 266.468 186.735 267.217 187.109C267.965 187.484 268.539 187.984 268.938 188.611C269.337 189.229 269.536 189.917 269.536 190.674H267.278C267.278 190.308 267.168 189.954 266.948 189.612C266.737 189.262 266.423 188.973 266.008 188.745C265.601 188.517 265.101 188.403 264.507 188.403C263.88 188.403 263.372 188.501 262.981 188.696C262.598 188.883 262.318 189.124 262.139 189.417C261.968 189.709 261.882 190.019 261.882 190.344C261.882 190.588 261.923 190.808 262.004 191.003C262.094 191.191 262.249 191.366 262.468 191.528C262.688 191.683 262.997 191.829 263.396 191.968C263.795 192.106 264.303 192.244 264.922 192.383C266.004 192.627 266.895 192.92 267.595 193.262C268.295 193.604 268.816 194.023 269.158 194.519C269.5 195.015 269.67 195.618 269.67 196.326C269.67 196.903 269.548 197.432 269.304 197.913C269.068 198.393 268.722 198.808 268.267 199.158C267.819 199.5 267.282 199.768 266.655 199.963C266.037 200.151 265.341 200.244 264.568 200.244C263.404 200.244 262.419 200.037 261.614 199.622C260.808 199.207 260.198 198.669 259.783 198.01C259.368 197.351 259.16 196.655 259.16 195.923H261.431C261.463 196.541 261.642 197.034 261.968 197.4C262.293 197.758 262.692 198.014 263.164 198.169C263.636 198.315 264.104 198.389 264.568 198.389C265.186 198.389 265.703 198.307 266.118 198.145C266.541 197.982 266.863 197.758 267.083 197.473C267.302 197.188 267.412 196.863 267.412 196.497Z" fill="#003450"/>
<path d="M77.869 43.567C67.9836 57.3435 48.1117 88.4663 48.1117 88.4663L0.5 88.4663C0.5 88.4663 25.5163 50.0027 37.9236 32.5055C41.0507 28.1815 43.8751 23.8072 47.5065 19.5838C51.6423 14.6564 56.2824 9.82958 62.4356 5.45528C64.9545 3.49281 68.4692 1.89703 72.6237 0.829589C74.7585 0.329264 77.0741 0.0490934 79.4315 0.00589326C81.7889 -0.0373069 84.1396 0.157354 86.3423 0.578193C91.4868 1.58378 95.7234 3.49439 99.0522 5.6564C105.004 9.57818 108.635 14.2542 111.359 18.9301C120.898 33.2542 125.436 48.2879 124.775 63.377C124.573 70.6675 122.858 81.4775 120.336 88.5166L77.9699 88.5166C77.9699 88.5166 80.4917 82.9859 90.5789 67.7513C92.092 65.4384 93.9077 63.1256 94.9165 60.7122C96.4081 57.1401 97.1518 53.5005 97.1356 49.8519C96.833 46.5837 96.4295 43.215 94.0086 40.148C92.9999 39.0418 91.7894 37.8351 89.3685 37.3826C87.3511 36.9804 85.3336 37.5335 83.9214 38.2374C80.9961 39.6452 79.3821 41.6564 77.869 43.567Z" fill="#003450"/>
<path d="M77.7906 156.481C87.6761 142.704 107.548 111.581 107.548 111.581H155.16C155.16 111.581 130.143 150.045 117.736 167.542C114.609 171.866 111.785 176.24 108.153 180.464C104.017 185.391 99.3773 190.218 93.2241 194.592C90.7052 196.555 87.1905 198.151 83.036 199.218C80.9012 199.718 78.5856 199.998 76.2281 200.042C73.8707 200.085 71.5201 199.89 69.3173 199.469C64.1729 198.464 59.9362 196.553 56.6074 194.391C50.656 190.469 47.0246 185.793 44.301 181.117C34.7619 166.793 30.2241 151.76 30.885 136.671C31.0868 129.38 32.8016 118.57 35.3234 111.531H77.6898C77.6898 111.531 75.168 117.062 65.0807 132.296C63.5676 134.609 61.7519 136.922 60.7432 139.335C59.2516 142.907 58.5079 146.547 58.524 150.196C58.8266 153.464 59.2301 156.833 61.6511 159.9C62.6598 161.006 63.8702 162.212 66.2912 162.665C68.3086 163.067 70.3261 162.514 71.7383 161.81C74.6636 160.402 76.2775 158.391 77.7906 156.481Z" fill="#003450"/>
<path d="M194.516 99.2747C185.591 96.7093 179.087 93.5657 175.004 89.8441C170.957 86.0862 168.934 81.4612 168.934 75.9691C168.934 69.7542 171.409 64.6234 176.359 60.5765C181.345 56.4935 187.813 54.452 195.762 54.452C201.182 54.452 206.006 55.4998 210.233 57.5955C214.497 59.6912 217.785 62.5818 220.098 66.2674C222.446 69.9529 223.621 73.9818 223.621 78.3538H213.16C213.16 73.5843 211.643 69.8445 208.607 67.1346C205.572 64.3885 201.291 63.0154 195.762 63.0154C190.631 63.0154 186.621 64.1536 183.73 66.43C180.875 68.6702 179.448 71.7957 179.448 75.8065C179.448 79.0223 180.803 81.7503 183.513 83.9905C186.259 86.1946 190.902 88.2181 197.442 90.0609C204.019 91.9036 209.149 93.9451 212.835 96.1854C216.557 98.3895 219.303 100.973 221.073 103.936C222.88 106.899 223.783 110.386 223.783 114.396C223.783 120.792 221.29 125.923 216.304 129.789C211.317 133.619 204.651 135.534 196.304 135.534C190.884 135.534 185.826 134.504 181.128 132.445C176.431 130.349 172.8 127.494 170.234 123.881C167.705 120.268 166.44 116.167 166.44 111.578H176.901C176.901 116.347 178.653 120.123 182.158 122.906C185.699 125.652 190.415 127.025 196.304 127.025C201.796 127.025 206.006 125.905 208.933 123.664C211.859 121.424 213.323 118.371 213.323 114.505C213.323 110.638 211.968 107.658 209.258 105.562C206.548 103.43 201.634 101.334 194.516 99.2747ZM287.521 120.629L298.795 75.8065H308.822L291.749 134.45H283.619L269.365 90.0067L255.49 134.45H247.36L230.341 75.8065H240.314L251.858 119.708L265.517 75.8065H273.592L287.521 120.629ZM316.41 104.586C316.41 98.8411 317.53 93.6741 319.77 89.0853C322.046 84.4964 325.19 80.9554 329.201 78.4622C333.248 75.9691 337.854 74.7225 343.021 74.7225C351.007 74.7225 357.457 77.4866 362.371 83.015C367.321 88.5433 369.796 95.8963 369.796 105.074V105.779C369.796 111.488 368.694 116.618 366.49 121.171C364.322 125.688 361.196 129.211 357.113 131.74C353.066 134.269 348.405 135.534 343.13 135.534C335.181 135.534 328.731 132.77 323.781 127.242C318.867 121.713 316.41 114.396 316.41 105.291V104.586ZM326.491 105.779C326.491 112.283 327.99 117.504 330.989 121.442C334.024 125.381 338.071 127.35 343.13 127.35C348.225 127.35 352.271 125.363 355.271 121.388C358.27 117.377 359.769 111.777 359.769 104.586C359.769 98.1546 358.233 92.9515 355.162 88.9769C352.127 84.9661 348.08 82.9608 343.021 82.9608C338.071 82.9608 334.079 84.93 331.043 88.8685C328.008 92.8069 326.491 98.4437 326.491 105.779ZM379.714 104.586C379.714 98.8411 380.834 93.6741 383.075 89.0853C385.351 84.4964 388.495 80.9554 392.505 78.4622C396.552 75.9691 401.159 74.7225 406.326 74.7225C414.312 74.7225 420.761 77.4866 425.675 83.015C430.625 88.5433 433.101 95.8963 433.101 105.074V105.779C433.101 111.488 431.999 116.618 429.794 121.171C427.626 125.688 424.501 129.211 420.418 131.74C416.371 134.269 411.71 135.534 406.435 135.534C398.485 135.534 392.036 132.77 387.085 127.242C382.171 121.713 379.714 114.396 379.714 105.291V104.586ZM389.795 105.779C389.795 112.283 391.295 117.504 394.294 121.442C397.329 125.381 401.376 127.35 406.435 127.35C411.529 127.35 415.576 125.363 418.575 121.388C421.574 117.377 423.074 111.777 423.074 104.586C423.074 98.1546 421.538 92.9515 418.467 88.9769C415.432 84.9661 411.385 82.9608 406.326 82.9608C401.376 82.9608 397.383 84.93 394.348 88.8685C391.313 92.8069 389.795 98.4437 389.795 105.779ZM481.88 128.651C477.978 133.24 472.25 135.534 464.699 135.534C458.448 135.534 453.678 133.727 450.39 130.114C447.138 126.465 445.494 121.081 445.458 113.963V75.8065H455.485V113.692C455.485 122.58 459.098 127.025 466.325 127.025C473.985 127.025 479.08 124.17 481.609 118.461V75.8065H491.636V134.45H482.097L481.88 128.651Z" fill="#003450"/>
</svg>
