<svg width="501" height="217" viewBox="0 0 501 217" fill="none" xmlns="http://www.w3.org/2000/svg">
<path d="M128.323 184.828H131.427L139.346 204.534L147.249 184.828H150.37L140.542 209H138.118L128.323 184.828ZM127.31 184.828H130.049L130.498 199.57V209H127.31V184.828ZM148.626 184.828H151.366V209H148.178V199.57L148.626 184.828ZM167.121 205.929V196.682C167.121 195.973 166.977 195.359 166.689 194.839C166.412 194.308 165.992 193.898 165.427 193.61C164.863 193.323 164.166 193.179 163.335 193.179C162.561 193.179 161.88 193.312 161.293 193.577C160.718 193.843 160.264 194.191 159.932 194.623C159.611 195.055 159.451 195.52 159.451 196.018H156.379C156.379 195.376 156.545 194.739 156.877 194.108C157.209 193.478 157.685 192.908 158.305 192.398C158.936 191.878 159.689 191.469 160.563 191.17C161.448 190.86 162.433 190.705 163.518 190.705C164.824 190.705 165.975 190.926 166.971 191.369C167.978 191.812 168.764 192.481 169.329 193.378C169.904 194.263 170.192 195.376 170.192 196.715V205.082C170.192 205.68 170.242 206.316 170.341 206.991C170.452 207.666 170.612 208.247 170.823 208.734V209H167.619C167.464 208.646 167.342 208.175 167.253 207.589C167.165 206.991 167.121 206.438 167.121 205.929ZM167.652 198.109L167.685 200.268H164.581C163.706 200.268 162.926 200.34 162.24 200.483C161.554 200.616 160.978 200.821 160.513 201.098C160.048 201.374 159.694 201.723 159.451 202.144C159.207 202.553 159.085 203.035 159.085 203.588C159.085 204.152 159.213 204.667 159.467 205.132C159.722 205.597 160.104 205.967 160.613 206.244C161.133 206.51 161.769 206.643 162.522 206.643C163.463 206.643 164.293 206.443 165.012 206.045C165.732 205.646 166.302 205.16 166.722 204.584C167.154 204.008 167.386 203.45 167.419 202.907L168.731 204.385C168.653 204.85 168.443 205.364 168.1 205.929C167.757 206.493 167.298 207.035 166.722 207.556C166.158 208.065 165.483 208.491 164.697 208.834C163.922 209.166 163.048 209.332 162.074 209.332C160.856 209.332 159.788 209.094 158.87 208.618C157.962 208.142 157.254 207.506 156.745 206.709C156.247 205.901 155.998 204.999 155.998 204.003C155.998 203.04 156.186 202.193 156.562 201.463C156.938 200.721 157.481 200.107 158.189 199.62C158.897 199.122 159.75 198.746 160.746 198.491C161.742 198.237 162.854 198.109 164.083 198.109H167.652ZM182.543 191.037V193.395H172.832V191.037H182.543ZM176.119 186.671H179.19V204.551C179.19 205.16 179.284 205.619 179.472 205.929C179.66 206.239 179.904 206.443 180.203 206.543C180.501 206.643 180.822 206.692 181.166 206.692C181.42 206.692 181.686 206.67 181.962 206.626C182.25 206.571 182.466 206.526 182.61 206.493L182.626 209C182.383 209.077 182.062 209.149 181.664 209.216C181.276 209.293 180.806 209.332 180.252 209.332C179.5 209.332 178.808 209.183 178.177 208.884C177.546 208.585 177.043 208.087 176.667 207.39C176.301 206.681 176.119 205.729 176.119 204.534V186.671ZM189.217 183.5V209H186.146V183.5H189.217ZM188.487 199.338L187.208 199.288C187.22 198.06 187.402 196.925 187.756 195.885C188.111 194.833 188.609 193.92 189.25 193.146C189.892 192.371 190.656 191.773 191.542 191.353C192.438 190.921 193.429 190.705 194.513 190.705C195.399 190.705 196.195 190.827 196.904 191.07C197.612 191.303 198.215 191.679 198.713 192.199C199.222 192.719 199.61 193.395 199.875 194.225C200.141 195.044 200.274 196.045 200.274 197.229V209H197.186V197.196C197.186 196.256 197.048 195.503 196.771 194.938C196.494 194.363 196.09 193.948 195.559 193.693C195.028 193.428 194.375 193.295 193.6 193.295C192.836 193.295 192.139 193.455 191.508 193.776C190.889 194.097 190.352 194.54 189.898 195.104C189.455 195.669 189.107 196.316 188.852 197.047C188.609 197.766 188.487 198.53 188.487 199.338ZM212.327 209.332C211.076 209.332 209.942 209.122 208.923 208.701C207.916 208.27 207.047 207.666 206.317 206.892C205.597 206.117 205.044 205.198 204.657 204.136C204.269 203.073 204.076 201.911 204.076 200.649V199.952C204.076 198.491 204.292 197.191 204.723 196.051C205.155 194.9 205.741 193.926 206.483 193.129C207.224 192.332 208.066 191.729 209.006 191.319C209.947 190.91 210.921 190.705 211.928 190.705C213.212 190.705 214.319 190.926 215.249 191.369C216.189 191.812 216.958 192.432 217.556 193.229C218.154 194.014 218.597 194.944 218.884 196.018C219.172 197.08 219.316 198.242 219.316 199.504V200.882H205.902V198.375H216.245V198.143C216.2 197.346 216.034 196.571 215.747 195.818C215.47 195.066 215.027 194.446 214.418 193.959C213.81 193.472 212.98 193.229 211.928 193.229C211.231 193.229 210.589 193.378 210.002 193.677C209.416 193.965 208.912 194.396 208.492 194.972C208.071 195.547 207.745 196.25 207.512 197.08C207.28 197.91 207.164 198.868 207.164 199.952V200.649C207.164 201.502 207.28 202.304 207.512 203.057C207.756 203.798 208.104 204.451 208.558 205.016C209.023 205.58 209.582 206.023 210.235 206.344C210.899 206.665 211.652 206.825 212.493 206.825C213.577 206.825 214.496 206.604 215.249 206.161C216.001 205.718 216.66 205.126 217.224 204.385L219.083 205.862C218.696 206.449 218.204 207.008 217.606 207.539C217.008 208.07 216.272 208.502 215.398 208.834C214.535 209.166 213.511 209.332 212.327 209.332ZM225.957 194.606V209H222.869V191.037H225.791L225.957 194.606ZM225.326 199.338L223.898 199.288C223.909 198.06 224.069 196.925 224.379 195.885C224.689 194.833 225.149 193.92 225.757 193.146C226.366 192.371 227.124 191.773 228.032 191.353C228.939 190.921 229.991 190.705 231.186 190.705C232.027 190.705 232.802 190.827 233.51 191.07C234.219 191.303 234.833 191.674 235.353 192.183C235.873 192.692 236.277 193.345 236.565 194.142C236.853 194.938 236.997 195.901 236.997 197.03V209H233.925V197.18C233.925 196.239 233.765 195.486 233.444 194.922C233.134 194.357 232.691 193.948 232.116 193.693C231.54 193.428 230.865 193.295 230.09 193.295C229.183 193.295 228.425 193.455 227.816 193.776C227.207 194.097 226.72 194.54 226.355 195.104C225.99 195.669 225.724 196.316 225.558 197.047C225.403 197.766 225.326 198.53 225.326 199.338ZM236.963 197.645L234.905 198.275C234.916 197.29 235.076 196.344 235.386 195.437C235.707 194.529 236.167 193.721 236.764 193.013C237.373 192.304 238.12 191.745 239.005 191.336C239.891 190.915 240.903 190.705 242.043 190.705C243.006 190.705 243.859 190.832 244.6 191.087C245.353 191.341 245.984 191.734 246.493 192.266C247.013 192.786 247.406 193.455 247.671 194.274C247.937 195.093 248.07 196.067 248.07 197.196V209H244.982V197.163C244.982 196.156 244.821 195.376 244.5 194.822C244.191 194.258 243.748 193.865 243.172 193.644C242.608 193.411 241.933 193.295 241.147 193.295C240.472 193.295 239.874 193.411 239.354 193.644C238.834 193.876 238.397 194.197 238.042 194.606C237.688 195.005 237.417 195.464 237.229 195.984C237.052 196.505 236.963 197.058 236.963 197.645ZM263.31 205.929V196.682C263.31 195.973 263.166 195.359 262.878 194.839C262.602 194.308 262.181 193.898 261.617 193.61C261.052 193.323 260.355 193.179 259.525 193.179C258.75 193.179 258.069 193.312 257.483 193.577C256.907 193.843 256.454 194.191 256.122 194.623C255.801 195.055 255.64 195.52 255.64 196.018H252.569C252.569 195.376 252.735 194.739 253.067 194.108C253.399 193.478 253.875 192.908 254.495 192.398C255.125 191.878 255.878 191.469 256.752 191.17C257.638 190.86 258.623 190.705 259.708 190.705C261.014 190.705 262.165 190.926 263.161 191.369C264.168 191.812 264.954 192.481 265.518 193.378C266.094 194.263 266.381 195.376 266.381 196.715V205.082C266.381 205.68 266.431 206.316 266.531 206.991C266.641 207.666 266.802 208.247 267.012 208.734V209H263.808C263.653 208.646 263.531 208.175 263.443 207.589C263.354 206.991 263.31 206.438 263.31 205.929ZM263.841 198.109L263.875 200.268H260.77C259.896 200.268 259.115 200.34 258.429 200.483C257.743 200.616 257.167 200.821 256.703 201.098C256.238 201.374 255.884 201.723 255.64 202.144C255.397 202.553 255.275 203.035 255.275 203.588C255.275 204.152 255.402 204.667 255.657 205.132C255.911 205.597 256.293 205.967 256.802 206.244C257.322 206.51 257.959 206.643 258.711 206.643C259.652 206.643 260.482 206.443 261.202 206.045C261.921 205.646 262.491 205.16 262.912 204.584C263.343 204.008 263.576 203.45 263.609 202.907L264.92 204.385C264.843 204.85 264.633 205.364 264.29 205.929C263.946 206.493 263.487 207.035 262.912 207.556C262.347 208.065 261.672 208.491 260.886 208.834C260.111 209.166 259.237 209.332 258.263 209.332C257.046 209.332 255.978 209.094 255.059 208.618C254.152 208.142 253.443 207.506 252.934 206.709C252.436 205.901 252.187 204.999 252.187 204.003C252.187 203.04 252.375 202.193 252.751 201.463C253.128 200.721 253.67 200.107 254.378 199.62C255.087 199.122 255.939 198.746 256.935 198.491C257.931 198.237 259.043 198.109 260.272 198.109H263.841ZM278.733 191.037V193.395H269.021V191.037H278.733ZM272.308 186.671H275.379V204.551C275.379 205.16 275.473 205.619 275.662 205.929C275.85 206.239 276.093 206.443 276.392 206.543C276.691 206.643 277.012 206.692 277.355 206.692C277.61 206.692 277.875 206.67 278.152 206.626C278.44 206.571 278.655 206.526 278.799 206.493L278.816 209C278.572 209.077 278.251 209.149 277.853 209.216C277.466 209.293 276.995 209.332 276.442 209.332C275.689 209.332 274.998 209.183 274.367 208.884C273.736 208.585 273.232 208.087 272.856 207.39C272.491 206.681 272.308 205.729 272.308 204.534V186.671ZM285.672 191.037V209H282.584V191.037H285.672ZM282.352 186.272C282.352 185.774 282.501 185.354 282.8 185.011C283.11 184.668 283.564 184.496 284.162 184.496C284.748 184.496 285.196 184.668 285.506 185.011C285.827 185.354 285.988 185.774 285.988 186.272C285.988 186.748 285.827 187.158 285.506 187.501C285.196 187.833 284.748 187.999 284.162 187.999C283.564 187.999 283.11 187.833 282.8 187.501C282.501 187.158 282.352 186.748 282.352 186.272ZM297.792 206.809C298.522 206.809 299.197 206.659 299.817 206.36C300.437 206.062 300.946 205.652 301.344 205.132C301.743 204.601 301.97 203.997 302.025 203.322H304.947C304.891 204.385 304.532 205.375 303.868 206.294C303.215 207.201 302.357 207.938 301.294 208.502C300.232 209.055 299.064 209.332 297.792 209.332C296.441 209.332 295.263 209.094 294.255 208.618C293.259 208.142 292.429 207.489 291.765 206.659C291.112 205.829 290.62 204.877 290.288 203.804C289.967 202.719 289.806 201.574 289.806 200.367V199.67C289.806 198.464 289.967 197.324 290.288 196.25C290.62 195.165 291.112 194.208 291.765 193.378C292.429 192.548 293.259 191.895 294.255 191.419C295.263 190.943 296.441 190.705 297.792 190.705C299.197 190.705 300.426 190.993 301.477 191.568C302.528 192.133 303.353 192.908 303.951 193.893C304.559 194.867 304.891 195.973 304.947 197.213H302.025C301.97 196.471 301.759 195.802 301.394 195.204C301.04 194.606 300.553 194.131 299.933 193.776C299.324 193.411 298.611 193.229 297.792 193.229C296.851 193.229 296.059 193.417 295.417 193.793C294.787 194.158 294.283 194.656 293.907 195.287C293.542 195.907 293.276 196.599 293.11 197.362C292.955 198.115 292.877 198.884 292.877 199.67V200.367C292.877 201.153 292.955 201.928 293.11 202.691C293.265 203.455 293.525 204.147 293.89 204.767C294.266 205.386 294.77 205.884 295.401 206.261C296.043 206.626 296.84 206.809 297.792 206.809ZM318.859 204.235C318.859 203.793 318.759 203.383 318.56 203.007C318.372 202.619 317.979 202.271 317.381 201.961C316.795 201.64 315.909 201.363 314.725 201.131C313.729 200.921 312.827 200.672 312.019 200.384C311.222 200.096 310.542 199.747 309.977 199.338C309.424 198.928 308.998 198.447 308.699 197.894C308.4 197.34 308.25 196.693 308.25 195.951C308.25 195.243 308.405 194.573 308.715 193.942C309.036 193.312 309.485 192.753 310.06 192.266C310.647 191.779 311.349 191.397 312.168 191.12C312.987 190.843 313.901 190.705 314.908 190.705C316.347 190.705 317.575 190.96 318.593 191.469C319.611 191.978 320.392 192.659 320.934 193.511C321.476 194.352 321.748 195.287 321.748 196.316H318.676C318.676 195.818 318.527 195.337 318.228 194.872C317.94 194.396 317.514 194.003 316.95 193.693C316.396 193.383 315.716 193.229 314.908 193.229C314.056 193.229 313.364 193.361 312.833 193.627C312.312 193.882 311.931 194.208 311.687 194.606C311.455 195.005 311.338 195.425 311.338 195.868C311.338 196.2 311.394 196.499 311.504 196.765C311.626 197.019 311.836 197.257 312.135 197.479C312.434 197.689 312.855 197.888 313.397 198.076C313.939 198.264 314.631 198.452 315.472 198.641C316.944 198.973 318.156 199.371 319.108 199.836C320.06 200.301 320.768 200.871 321.233 201.546C321.698 202.221 321.93 203.04 321.93 204.003C321.93 204.789 321.764 205.508 321.432 206.161C321.111 206.814 320.641 207.379 320.021 207.854C319.412 208.319 318.682 208.685 317.83 208.95C316.988 209.205 316.042 209.332 314.991 209.332C313.408 209.332 312.069 209.05 310.973 208.485C309.877 207.921 309.047 207.19 308.483 206.294C307.918 205.397 307.636 204.451 307.636 203.455H310.724C310.768 204.296 311.012 204.966 311.455 205.464C311.897 205.951 312.44 206.299 313.082 206.51C313.723 206.709 314.36 206.809 314.991 206.809C315.832 206.809 316.535 206.698 317.099 206.477C317.675 206.255 318.112 205.951 318.411 205.563C318.709 205.176 318.859 204.733 318.859 204.235Z" fill="#003450"/>
<path d="M77.869 43.567C67.9835 57.3435 48.1117 88.4663 48.1117 88.4663L0.5 88.4663C0.5 88.4663 25.5163 50.0027 37.9236 32.5055C41.0507 28.1815 43.8751 23.8072 47.5065 19.5838C51.6423 14.6564 56.2824 9.82958 62.4356 5.45528C64.9545 3.49281 68.4692 1.89703 72.6237 0.829589C74.7585 0.329264 77.0741 0.0490934 79.4315 0.00589326C81.7889 -0.0373069 84.1396 0.157354 86.3423 0.578193C91.4868 1.58378 95.7234 3.49439 99.0522 5.6564C105.004 9.57818 108.635 14.2542 111.359 18.9301C120.898 33.2542 125.436 48.2879 124.775 63.377C124.573 70.6675 122.858 81.4775 120.336 88.5166L77.9699 88.5166C77.9699 88.5166 80.4917 82.9859 90.5789 67.7513C92.092 65.4384 93.9077 63.1256 94.9165 60.7122C96.4081 57.1401 97.1518 53.5005 97.1356 49.8519C96.833 46.5837 96.4295 43.215 94.0086 40.148C92.9999 39.0418 91.7894 37.8351 89.3685 37.3826C87.351 36.9804 85.3336 37.5334 83.9214 38.2374C80.9961 39.6452 79.3821 41.6564 77.869 43.567Z" fill="#003450"/>
<path d="M77.7906 156.481C87.6761 142.704 107.548 111.581 107.548 111.581H155.16C155.16 111.581 130.143 150.045 117.736 167.542C114.609 171.866 111.785 176.24 108.153 180.464C104.017 185.391 99.3773 190.218 93.2241 194.592C90.7052 196.555 87.1905 198.151 83.036 199.218C80.9012 199.718 78.5856 199.998 76.2281 200.042C73.8707 200.085 71.5201 199.89 69.3173 199.469C64.1729 198.464 59.9362 196.553 56.6074 194.391C50.656 190.469 47.0246 185.793 44.301 181.117C34.7619 166.793 30.2241 151.76 30.885 136.671C31.0868 129.38 32.8016 118.57 35.3234 111.531H77.6898C77.6898 111.531 75.168 117.062 65.0807 132.296C63.5676 134.609 61.7519 136.922 60.7432 139.335C59.2516 142.907 58.5079 146.547 58.524 150.196C58.8266 153.464 59.2301 156.833 61.6511 159.9C62.6598 161.006 63.8702 162.212 66.2912 162.665C68.3086 163.067 70.3261 162.514 71.7383 161.81C74.6636 160.402 76.2775 158.391 77.7906 156.481Z" fill="#003450"/>
<path d="M194.516 99.2747C185.591 96.7093 179.087 93.5657 175.004 89.8441C170.957 86.0862 168.934 81.4612 168.934 75.9691C168.934 69.7542 171.409 64.6234 176.359 60.5765C181.345 56.4935 187.813 54.452 195.762 54.452C201.182 54.452 206.006 55.4998 210.233 57.5955C214.497 59.6912 217.785 62.5818 220.098 66.2674C222.446 69.9529 223.621 73.9818 223.621 78.3538H213.16C213.16 73.5843 211.643 69.8445 208.607 67.1346C205.572 64.3885 201.291 63.0154 195.762 63.0154C190.631 63.0154 186.621 64.1536 183.73 66.43C180.875 68.6702 179.448 71.7957 179.448 75.8065C179.448 79.0223 180.803 81.7503 183.513 83.9905C186.259 86.1946 190.902 88.2181 197.442 90.0609C204.019 91.9036 209.149 93.9451 212.835 96.1854C216.557 98.3895 219.303 100.973 221.073 103.936C222.88 106.899 223.783 110.386 223.783 114.396C223.783 120.792 221.29 125.923 216.304 129.789C211.317 133.619 204.651 135.534 196.304 135.534C190.884 135.534 185.826 134.504 181.128 132.445C176.431 130.349 172.8 127.494 170.234 123.881C167.705 120.268 166.44 116.167 166.44 111.578H176.901C176.901 116.347 178.653 120.123 182.158 122.906C185.699 125.652 190.415 127.025 196.304 127.025C201.796 127.025 206.006 125.905 208.933 123.664C211.859 121.424 213.323 118.371 213.323 114.505C213.323 110.638 211.968 107.658 209.258 105.562C206.548 103.43 201.634 101.334 194.516 99.2747ZM287.521 120.629L298.795 75.8065H308.822L291.749 134.45H283.619L269.365 90.0067L255.49 134.45H247.36L230.341 75.8065H240.314L251.858 119.708L265.517 75.8065H273.592L287.521 120.629ZM316.41 104.586C316.41 98.8411 317.53 93.6741 319.77 89.0853C322.046 84.4964 325.19 80.9554 329.201 78.4622C333.248 75.9691 337.854 74.7225 343.021 74.7225C351.007 74.7225 357.457 77.4866 362.371 83.015C367.321 88.5433 369.796 95.8963 369.796 105.074V105.779C369.796 111.488 368.694 116.618 366.49 121.171C364.322 125.688 361.196 129.211 357.113 131.74C353.066 134.269 348.405 135.534 343.13 135.534C335.181 135.534 328.731 132.77 323.781 127.242C318.867 121.713 316.41 114.396 316.41 105.291V104.586ZM326.491 105.779C326.491 112.283 327.99 117.504 330.989 121.442C334.024 125.381 338.071 127.35 343.13 127.35C348.225 127.35 352.271 125.363 355.271 121.388C358.27 117.377 359.769 111.777 359.769 104.586C359.769 98.1546 358.233 92.9515 355.162 88.9769C352.127 84.9661 348.08 82.9608 343.021 82.9608C338.071 82.9608 334.079 84.93 331.043 88.8685C328.008 92.8069 326.491 98.4437 326.491 105.779ZM379.714 104.586C379.714 98.8411 380.834 93.6741 383.075 89.0853C385.351 84.4964 388.495 80.9554 392.505 78.4622C396.552 75.9691 401.159 74.7225 406.326 74.7225C414.312 74.7225 420.761 77.4866 425.675 83.015C430.625 88.5433 433.101 95.8963 433.101 105.074V105.779C433.101 111.488 431.999 116.618 429.794 121.171C427.626 125.688 424.501 129.211 420.418 131.74C416.371 134.269 411.71 135.534 406.435 135.534C398.485 135.534 392.036 132.77 387.085 127.242C382.171 121.713 379.714 114.396 379.714 105.291V104.586ZM389.795 105.779C389.795 112.283 391.295 117.504 394.294 121.442C397.329 125.381 401.376 127.35 406.435 127.35C411.529 127.35 415.576 125.363 418.575 121.388C421.574 117.377 423.074 111.777 423.074 104.586C423.074 98.1546 421.538 92.9515 418.467 88.9769C415.432 84.9661 411.385 82.9608 406.326 82.9608C401.376 82.9608 397.383 84.93 394.348 88.8685C391.313 92.8069 389.795 98.4437 389.795 105.779ZM481.88 128.651C477.978 133.24 472.25 135.534 464.699 135.534C458.448 135.534 453.678 133.727 450.39 130.114C447.138 126.465 445.494 121.081 445.458 113.963V75.8065H455.485V113.692C455.485 122.58 459.098 127.025 466.325 127.025C473.985 127.025 479.08 124.17 481.609 118.461V75.8065H491.636V134.45H482.097L481.88 128.651Z" fill="#003450"/>
</svg>
