<svg width="1024" height="427" viewBox="0 0 1024 427" fill="none" xmlns="http://www.w3.org/2000/svg">
<path d="M262.224 360.181H268.58L284.792 400.525L300.971 360.181H307.361L287.24 409.668H282.277L262.224 360.181ZM260.151 360.181H265.759L266.677 390.363V409.668H260.151V360.181ZM303.792 360.181H309.4V409.668H302.874V390.363L303.792 360.181ZM341.655 403.38V384.449C341.655 382.999 341.36 381.741 340.771 380.676C340.205 379.589 339.344 378.75 338.188 378.161C337.032 377.572 335.605 377.277 333.905 377.277C332.319 377.277 330.926 377.549 329.725 378.093C328.547 378.637 327.618 379.351 326.938 380.234C326.281 381.118 325.952 382.07 325.952 383.089H319.664C319.664 381.775 320.004 380.472 320.684 379.181C321.364 377.889 322.338 376.722 323.607 375.68C324.899 374.615 326.439 373.777 328.229 373.165C330.042 372.53 332.059 372.213 334.279 372.213C336.953 372.213 339.31 372.666 341.349 373.573C343.411 374.479 345.02 375.85 346.175 377.685C347.354 379.498 347.943 381.775 347.943 384.517V401.647C347.943 402.871 348.045 404.173 348.249 405.556C348.475 406.938 348.804 408.127 349.234 409.124V409.668H342.674C342.357 408.943 342.108 407.98 341.927 406.779C341.745 405.556 341.655 404.423 341.655 403.38ZM342.742 387.372L342.81 391.79H336.455C334.665 391.79 333.067 391.938 331.662 392.232C330.257 392.504 329.079 392.923 328.127 393.49C327.176 394.056 326.451 394.77 325.952 395.631C325.454 396.469 325.205 397.455 325.205 398.588C325.205 399.744 325.465 400.797 325.986 401.749C326.507 402.701 327.289 403.46 328.331 404.026C329.396 404.57 330.699 404.842 332.24 404.842C334.166 404.842 335.865 404.434 337.338 403.618C338.811 402.803 339.978 401.806 340.839 400.627C341.723 399.449 342.199 398.305 342.267 397.195L344.952 400.219C344.793 401.171 344.363 402.225 343.66 403.38C342.958 404.536 342.017 405.646 340.839 406.711C339.683 407.754 338.301 408.626 336.693 409.328C335.106 410.008 333.316 410.348 331.322 410.348C328.83 410.348 326.643 409.861 324.763 408.886C322.905 407.912 321.454 406.609 320.412 404.978C319.393 403.324 318.883 401.477 318.883 399.438C318.883 397.466 319.268 395.733 320.038 394.238C320.809 392.719 321.919 391.462 323.369 390.465C324.819 389.445 326.564 388.675 328.603 388.154C330.643 387.632 332.92 387.372 335.435 387.372H342.742ZM373.23 372.893V377.719H353.347V372.893H373.23ZM360.076 363.954H366.364V400.559C366.364 401.806 366.557 402.746 366.942 403.38C367.327 404.015 367.826 404.434 368.438 404.638C369.049 404.842 369.706 404.944 370.409 404.944C370.93 404.944 371.474 404.899 372.04 404.808C372.629 404.695 373.071 404.604 373.366 404.536L373.4 409.668C372.901 409.827 372.244 409.974 371.429 410.11C370.635 410.269 369.672 410.348 368.54 410.348C366.999 410.348 365.583 410.042 364.291 409.43C362.999 408.819 361.968 407.799 361.198 406.371C360.45 404.921 360.076 402.973 360.076 400.525V363.954ZM386.893 357.462V409.668H380.605V357.462H386.893ZM385.398 389.887L382.781 389.785C382.803 387.27 383.177 384.947 383.902 382.817C384.627 380.665 385.647 378.796 386.961 377.209C388.275 375.623 389.839 374.4 391.652 373.539C393.487 372.655 395.515 372.213 397.735 372.213C399.548 372.213 401.18 372.462 402.63 372.961C404.08 373.437 405.315 374.207 406.334 375.272C407.377 376.337 408.17 377.719 408.714 379.419C409.257 381.095 409.529 383.146 409.529 385.571V409.668H403.208V385.503C403.208 383.577 402.924 382.036 402.358 380.88C401.791 379.702 400.964 378.852 399.877 378.331C398.789 377.787 397.452 377.515 395.866 377.515C394.303 377.515 392.875 377.844 391.584 378.501C390.315 379.158 389.216 380.064 388.287 381.22C387.38 382.376 386.667 383.701 386.145 385.197C385.647 386.669 385.398 388.233 385.398 389.887ZM434.205 410.348C431.644 410.348 429.322 409.917 427.237 409.056C425.175 408.173 423.397 406.938 421.901 405.352C420.428 403.766 419.295 401.885 418.502 399.71C417.709 397.534 417.313 395.155 417.313 392.572V391.145C417.313 388.154 417.755 385.491 418.638 383.157C419.522 380.801 420.723 378.807 422.241 377.175C423.759 375.544 425.481 374.309 427.407 373.471C429.333 372.632 431.327 372.213 433.389 372.213C436.018 372.213 438.283 372.666 440.187 373.573C442.113 374.479 443.688 375.748 444.911 377.379C446.135 378.988 447.041 380.891 447.63 383.089C448.219 385.265 448.514 387.644 448.514 390.227V393.048H421.051V387.916H442.226V387.44C442.135 385.808 441.796 384.222 441.206 382.682C440.64 381.141 439.734 379.872 438.487 378.875C437.241 377.878 435.542 377.379 433.389 377.379C431.962 377.379 430.647 377.685 429.446 378.297C428.246 378.886 427.215 379.77 426.354 380.948C425.492 382.126 424.824 383.565 424.348 385.265C423.872 386.964 423.634 388.924 423.634 391.145V392.572C423.634 394.317 423.872 395.96 424.348 397.5C424.847 399.019 425.56 400.355 426.489 401.511C427.441 402.667 428.585 403.573 429.922 404.23C431.282 404.887 432.823 405.216 434.545 405.216C436.765 405.216 438.646 404.763 440.187 403.856C441.728 402.95 443.076 401.738 444.231 400.219L448.038 403.244C447.245 404.445 446.237 405.59 445.013 406.677C443.79 407.765 442.283 408.649 440.493 409.328C438.725 410.008 436.629 410.348 434.205 410.348ZM462.109 380.2V409.668H455.787V372.893H461.769L462.109 380.2ZM460.818 389.887L457.895 389.785C457.917 387.27 458.246 384.947 458.88 382.817C459.515 380.665 460.455 378.796 461.701 377.209C462.948 375.623 464.5 374.4 466.358 373.539C468.216 372.655 470.368 372.213 472.815 372.213C474.538 372.213 476.124 372.462 477.574 372.961C479.024 373.437 480.282 374.196 481.347 375.238C482.411 376.28 483.239 377.617 483.828 379.249C484.417 380.88 484.711 382.851 484.711 385.163V409.668H478.424V385.469C478.424 383.543 478.095 382.002 477.438 380.846C476.803 379.691 475.897 378.852 474.719 378.331C473.541 377.787 472.158 377.515 470.572 377.515C468.714 377.515 467.162 377.844 465.916 378.501C464.67 379.158 463.673 380.064 462.925 381.22C462.177 382.376 461.633 383.701 461.293 385.197C460.976 386.669 460.818 388.233 460.818 389.887ZM484.643 386.42L480.429 387.712C480.451 385.695 480.78 383.758 481.414 381.9C482.072 380.042 483.012 378.388 484.236 376.938C485.482 375.487 487.011 374.343 488.824 373.505C490.637 372.644 492.71 372.213 495.044 372.213C497.015 372.213 498.76 372.474 500.278 372.995C501.819 373.516 503.11 374.32 504.153 375.408C505.218 376.473 506.022 377.844 506.566 379.521C507.11 381.197 507.382 383.191 507.382 385.503V409.668H501.06V385.435C501.06 383.373 500.731 381.775 500.074 380.642C499.44 379.487 498.533 378.682 497.355 378.229C496.199 377.753 494.817 377.515 493.208 377.515C491.826 377.515 490.603 377.753 489.538 378.229C488.473 378.705 487.578 379.362 486.853 380.2C486.128 381.016 485.572 381.956 485.187 383.021C484.825 384.086 484.643 385.219 484.643 386.42ZM538.583 403.38V384.449C538.583 382.999 538.288 381.741 537.699 380.676C537.133 379.589 536.272 378.75 535.116 378.161C533.96 377.572 532.533 377.277 530.833 377.277C529.247 377.277 527.854 377.549 526.653 378.093C525.475 378.637 524.546 379.351 523.866 380.234C523.209 381.118 522.88 382.07 522.88 383.089H516.592C516.592 381.775 516.932 380.472 517.612 379.181C518.292 377.889 519.266 376.722 520.535 375.68C521.827 374.615 523.367 373.777 525.157 373.165C526.97 372.53 528.987 372.213 531.207 372.213C533.881 372.213 536.238 372.666 538.277 373.573C540.339 374.479 541.948 375.85 543.103 377.685C544.281 379.498 544.871 381.775 544.871 384.517V401.647C544.871 402.871 544.973 404.173 545.176 405.556C545.403 406.938 545.732 408.127 546.162 409.124V409.668H539.602C539.285 408.943 539.036 407.98 538.855 406.779C538.673 405.556 538.583 404.423 538.583 403.38ZM539.67 387.372L539.738 391.79H533.383C531.592 391.79 529.995 391.938 528.59 392.232C527.185 392.504 526.007 392.923 525.055 393.49C524.104 394.056 523.379 394.77 522.88 395.631C522.382 396.469 522.132 397.455 522.132 398.588C522.132 399.744 522.393 400.797 522.914 401.749C523.435 402.701 524.217 403.46 525.259 404.026C526.324 404.57 527.627 404.842 529.168 404.842C531.094 404.842 532.793 404.434 534.266 403.618C535.739 402.803 536.906 401.806 537.767 400.627C538.651 399.449 539.127 398.305 539.195 397.195L541.88 400.219C541.721 401.171 541.29 402.225 540.588 403.38C539.886 404.536 538.945 405.646 537.767 406.711C536.611 407.754 535.229 408.626 533.62 409.328C532.034 410.008 530.244 410.348 528.25 410.348C525.758 410.348 523.571 409.861 521.691 408.886C519.833 407.912 518.382 406.609 517.34 404.978C516.32 403.324 515.811 401.477 515.811 399.438C515.811 397.466 516.196 395.733 516.966 394.238C517.737 392.719 518.847 391.462 520.297 390.465C521.747 389.445 523.492 388.675 525.531 388.154C527.571 387.632 529.848 387.372 532.363 387.372H539.67ZM570.158 372.893V377.719H550.275V372.893H570.158ZM557.004 363.954H563.292V400.559C563.292 401.806 563.485 402.746 563.87 403.38C564.255 404.015 564.754 404.434 565.365 404.638C565.977 404.842 566.634 404.944 567.337 404.944C567.858 404.944 568.402 404.899 568.968 404.808C569.557 404.695 569.999 404.604 570.294 404.536L570.328 409.668C569.829 409.827 569.172 409.974 568.356 410.11C567.563 410.269 566.6 410.348 565.467 410.348C563.927 410.348 562.51 410.042 561.219 409.43C559.927 408.819 558.896 407.799 558.126 406.371C557.378 404.921 557.004 402.973 557.004 400.525V363.954ZM584.365 372.893V409.668H578.043V372.893H584.365ZM577.567 363.138C577.567 362.119 577.873 361.258 578.485 360.555C579.119 359.853 580.048 359.502 581.272 359.502C582.473 359.502 583.391 359.853 584.025 360.555C584.682 361.258 585.011 362.119 585.011 363.138C585.011 364.113 584.682 364.951 584.025 365.653C583.391 366.333 582.473 366.673 581.272 366.673C580.048 366.673 579.119 366.333 578.485 365.653C577.873 364.951 577.567 364.113 577.567 363.138ZM609.176 405.182C610.672 405.182 612.054 404.876 613.323 404.264C614.592 403.652 615.634 402.814 616.45 401.749C617.266 400.661 617.73 399.426 617.843 398.044H623.825C623.712 400.219 622.976 402.247 621.616 404.128C620.279 405.986 618.523 407.493 616.348 408.649C614.173 409.782 611.782 410.348 609.176 410.348C606.412 410.348 603.999 409.861 601.937 408.886C599.898 407.912 598.198 406.575 596.839 404.876C595.502 403.176 594.493 401.228 593.814 399.03C593.157 396.809 592.828 394.464 592.828 391.994V390.567C592.828 388.097 593.157 385.763 593.814 383.565C594.493 381.345 595.502 379.385 596.839 377.685C598.198 375.986 599.898 374.649 601.937 373.675C603.999 372.7 606.412 372.213 609.176 372.213C612.054 372.213 614.569 372.802 616.722 373.981C618.874 375.136 620.562 376.722 621.786 378.739C623.032 380.733 623.712 382.999 623.825 385.537H617.843C617.73 384.018 617.299 382.648 616.552 381.424C615.827 380.2 614.83 379.226 613.561 378.501C612.315 377.753 610.853 377.379 609.176 377.379C607.25 377.379 605.63 377.765 604.316 378.535C603.024 379.283 601.993 380.302 601.223 381.594C600.475 382.863 599.932 384.279 599.592 385.842C599.274 387.383 599.116 388.958 599.116 390.567V391.994C599.116 393.603 599.274 395.189 599.592 396.753C599.909 398.316 600.441 399.732 601.189 401.001C601.959 402.27 602.99 403.29 604.282 404.06C605.596 404.808 607.228 405.182 609.176 405.182ZM652.307 399.914C652.307 399.007 652.103 398.169 651.696 397.398C651.31 396.605 650.506 395.892 649.282 395.257C648.082 394.6 646.269 394.034 643.844 393.558C641.805 393.127 639.958 392.617 638.304 392.028C636.673 391.439 635.279 390.725 634.124 389.887C632.991 389.049 632.118 388.063 631.507 386.93C630.895 385.797 630.589 384.472 630.589 382.953C630.589 381.503 630.906 380.132 631.541 378.841C632.198 377.549 633.115 376.405 634.294 375.408C635.495 374.411 636.933 373.629 638.61 373.063C640.287 372.496 642.156 372.213 644.218 372.213C647.164 372.213 649.679 372.734 651.764 373.777C653.848 374.819 655.446 376.212 656.556 377.957C657.666 379.679 658.221 381.594 658.221 383.701H651.934C651.934 382.682 651.628 381.696 651.016 380.744C650.427 379.77 649.554 378.965 648.399 378.331C647.266 377.697 645.872 377.379 644.218 377.379C642.473 377.379 641.057 377.651 639.97 378.195C638.905 378.716 638.123 379.385 637.624 380.2C637.149 381.016 636.911 381.877 636.911 382.784C636.911 383.463 637.024 384.075 637.251 384.619C637.5 385.14 637.93 385.627 638.542 386.08C639.154 386.511 640.015 386.919 641.125 387.304C642.236 387.689 643.652 388.074 645.374 388.46C648.387 389.139 650.869 389.955 652.817 390.907C654.766 391.858 656.216 393.025 657.168 394.407C658.119 395.79 658.595 397.466 658.595 399.438C658.595 401.047 658.255 402.519 657.576 403.856C656.918 405.193 655.955 406.349 654.687 407.323C653.44 408.275 651.945 409.022 650.2 409.566C648.478 410.087 646.541 410.348 644.388 410.348C641.148 410.348 638.406 409.77 636.163 408.615C633.92 407.459 632.22 405.963 631.065 404.128C629.909 402.293 629.331 400.355 629.331 398.316H635.653C635.744 400.038 636.242 401.409 637.149 402.429C638.055 403.426 639.165 404.139 640.48 404.57C641.794 404.978 643.097 405.182 644.388 405.182C646.11 405.182 647.549 404.955 648.705 404.502C649.883 404.049 650.778 403.426 651.39 402.633C652.002 401.84 652.307 400.933 652.307 399.914Z" fill="white"/>
<path d="M158.73 89.3818C138.449 117.646 97.68 181.497 97.68 181.497L0 181.497C0 181.497 51.3234 102.585 76.7782 66.6882C83.1936 57.8171 88.9882 48.8428 96.4384 40.178C104.923 30.069 114.443 20.1663 127.067 11.192C132.235 7.16584 139.445 3.89194 147.969 1.70198C152.348 0.675517 157.099 0.10072 161.936 0.0120906C166.772 -0.0765387 171.595 0.322828 176.114 1.18622C186.668 3.24927 195.36 7.16908 202.189 11.6046C214.399 19.6506 221.85 29.2438 227.437 38.837C247.008 68.2243 256.317 99.0674 254.961 130.024C254.548 144.981 251.029 167.159 245.856 181.6L158.937 181.6C158.937 181.6 164.111 170.254 184.806 138.998C187.91 134.253 191.635 129.508 193.705 124.557C196.765 117.228 198.29 109.761 198.257 102.276C197.636 95.571 196.809 88.6598 191.842 82.3674C189.772 80.0981 187.289 77.6224 182.322 76.694C178.183 75.8688 174.044 77.0035 171.147 78.4476C165.145 81.3359 161.834 85.462 158.73 89.3818Z" fill="white"/>
<path d="M158.569 321.035C178.85 292.771 219.619 228.92 219.619 228.92H317.299C317.299 228.92 265.975 307.832 240.521 343.729C234.105 352.6 228.311 361.574 220.86 370.239C212.376 380.348 202.856 390.251 190.232 399.225C185.064 403.251 177.853 406.525 169.33 408.715C164.95 409.741 160.2 410.316 155.363 410.405C150.527 410.494 145.704 410.094 141.185 409.231C130.631 407.168 121.939 403.248 115.109 398.812C102.899 390.766 95.4492 381.173 89.8616 371.58C70.2911 342.193 60.9814 311.35 62.3374 280.393C62.7513 265.436 66.2694 243.258 71.4431 228.817H158.362C158.362 228.817 153.188 240.163 132.493 271.419C129.389 276.164 125.664 280.909 123.594 285.86C120.534 293.189 119.008 300.656 119.041 308.141C119.662 314.846 120.49 321.757 125.457 328.05C127.526 330.319 130.01 332.795 134.977 333.723C139.115 334.548 143.255 333.414 146.152 331.969C152.153 329.081 155.465 324.955 158.569 321.035Z" fill="white"/>
<path d="M436.406 234.689C436.406 230.916 435.814 227.587 434.63 224.702C433.521 221.743 431.524 219.08 428.639 216.713C425.828 214.346 421.907 212.09 416.877 209.944C411.92 207.799 405.633 205.617 398.013 203.398C390.024 201.03 382.811 198.404 376.376 195.519C369.94 192.56 364.429 189.194 359.842 185.422C355.256 181.649 351.742 177.322 349.301 172.439C346.86 167.557 345.639 161.972 345.639 155.684C345.639 149.396 346.934 143.589 349.523 138.263C352.112 132.937 355.811 128.313 360.619 124.393C365.501 120.398 371.308 117.291 378.04 115.072C384.772 112.853 392.28 111.743 400.565 111.743C412.697 111.743 422.98 114.073 431.413 118.734C439.92 123.32 446.392 129.349 450.831 136.821C455.269 144.218 457.489 152.133 457.489 160.566H436.184C436.184 154.5 434.889 149.137 432.3 144.477C429.711 139.743 425.791 136.044 420.538 133.381C415.286 130.644 408.628 129.275 400.565 129.275C392.946 129.275 386.658 130.422 381.702 132.715C376.745 135.008 373.047 138.115 370.606 142.036C368.238 145.956 367.055 150.432 367.055 155.462C367.055 158.865 367.758 161.972 369.163 164.783C370.643 167.52 372.899 170.072 375.932 172.439C379.039 174.806 382.959 176.989 387.694 178.986C392.502 180.983 398.235 182.907 404.893 184.756C414.066 187.345 421.981 190.23 428.639 193.411C435.296 196.592 440.77 200.18 445.061 204.174C449.425 208.095 452.643 212.57 454.715 217.601C456.86 222.557 457.932 228.179 457.932 234.467C457.932 241.051 456.601 247.005 453.938 252.332C451.275 257.658 447.465 262.207 442.509 265.98C437.552 269.753 431.598 272.675 424.644 274.746C417.764 276.743 410.071 277.742 401.564 277.742C394.092 277.742 386.732 276.706 379.483 274.635C372.307 272.564 365.76 269.457 359.842 265.314C353.998 261.172 349.301 256.067 345.75 250.001C342.273 243.862 340.535 236.76 340.535 228.697H361.84C361.84 234.245 362.912 239.016 365.058 243.011C367.203 246.931 370.125 250.186 373.824 252.775C377.596 255.365 381.85 257.288 386.584 258.545C391.392 259.729 396.386 260.321 401.564 260.321C409.035 260.321 415.36 259.285 420.538 257.214C425.717 255.143 429.637 252.184 432.3 248.337C435.037 244.49 436.406 239.941 436.406 234.689ZM512.526 254.218L543.373 155.462H556.91L554.247 175.102L522.845 275.523H509.641L512.526 254.218ZM491.776 155.462L518.074 255.328L519.96 275.523H506.09L471.248 155.462H491.776ZM586.426 254.551L611.503 155.462H631.92L597.078 275.523H583.319L586.426 254.551ZM559.906 155.462L590.088 252.554L593.528 275.523H580.434L548.144 174.88L545.481 155.462H559.906ZM647.566 216.824V214.272C647.566 205.617 648.823 197.591 651.339 190.193C653.854 182.722 657.478 176.249 662.213 170.775C666.947 165.227 672.68 160.936 679.412 157.903C686.143 154.796 693.689 153.243 702.048 153.243C710.481 153.243 718.063 154.796 724.795 157.903C731.601 160.936 737.371 165.227 742.105 170.775C746.913 176.249 750.575 182.722 753.09 190.193C755.605 197.591 756.863 205.617 756.863 214.272V216.824C756.863 225.479 755.605 233.505 753.09 240.903C750.575 248.3 746.913 254.773 742.105 260.321C737.371 265.795 731.638 270.085 724.906 273.192C718.248 276.225 710.703 277.742 702.27 277.742C693.837 277.742 686.254 276.225 679.523 273.192C672.791 270.085 667.021 265.795 662.213 260.321C657.478 254.773 653.854 248.3 651.339 240.903C648.823 233.505 647.566 225.479 647.566 216.824ZM668.094 214.272V216.824C668.094 222.816 668.796 228.475 670.202 233.801C671.608 239.053 673.716 243.714 676.527 247.782C679.412 251.851 683 255.069 687.29 257.436C691.581 259.729 696.574 260.876 702.27 260.876C707.892 260.876 712.811 259.729 717.028 257.436C721.318 255.069 724.869 251.851 727.68 247.782C730.491 243.714 732.599 239.053 734.005 233.801C735.484 228.475 736.224 222.816 736.224 216.824V214.272C736.224 208.354 735.484 202.769 734.005 197.517C732.599 192.19 730.454 187.493 727.569 183.424C724.758 179.282 721.207 176.027 716.917 173.66C712.7 171.293 707.744 170.109 702.048 170.109C696.426 170.109 691.47 171.293 687.179 173.66C682.963 176.027 679.412 179.282 676.527 183.424C673.716 187.493 671.608 192.19 670.202 197.517C668.796 202.769 668.094 208.354 668.094 214.272ZM777.169 216.824V214.272C777.169 205.617 778.427 197.591 780.942 190.193C783.457 182.722 787.082 176.249 791.816 170.775C796.55 165.227 802.283 160.936 809.015 157.903C815.747 154.796 823.292 153.243 831.651 153.243C840.084 153.243 847.667 154.796 854.398 157.903C861.204 160.936 866.974 165.227 871.708 170.775C876.517 176.249 880.178 182.722 882.694 190.193C885.209 197.591 886.466 205.617 886.466 214.272V216.824C886.466 225.479 885.209 233.505 882.694 240.903C880.178 248.3 876.517 254.773 871.708 260.321C866.974 265.795 861.241 270.085 854.509 273.192C847.852 276.225 840.306 277.742 831.873 277.742C823.44 277.742 815.858 276.225 809.126 273.192C802.394 270.085 796.624 265.795 791.816 260.321C787.082 254.773 783.457 248.3 780.942 240.903C778.427 233.505 777.169 225.479 777.169 216.824ZM797.697 214.272V216.824C797.697 222.816 798.4 228.475 799.805 233.801C801.211 239.053 803.319 243.714 806.13 247.782C809.015 251.851 812.603 255.069 816.893 257.436C821.184 259.729 826.177 260.876 831.873 260.876C837.495 260.876 842.414 259.729 846.631 257.436C850.922 255.069 854.472 251.851 857.283 247.782C860.094 243.714 862.203 239.053 863.608 233.801C865.088 228.475 865.827 222.816 865.827 216.824V214.272C865.827 208.354 865.088 202.769 863.608 197.517C862.203 192.19 860.057 187.493 857.172 183.424C854.361 179.282 850.811 176.027 846.52 173.66C842.303 171.293 837.347 170.109 831.651 170.109C826.029 170.109 821.073 171.293 816.782 173.66C812.566 176.027 809.015 179.282 806.13 183.424C803.319 187.493 801.211 192.19 799.805 197.517C798.4 202.769 797.697 208.354 797.697 214.272ZM985.666 247.782V155.462H1006.3V275.523H986.665L985.666 247.782ZM989.55 222.483L998.094 222.261C998.094 230.25 997.243 237.648 995.541 244.453C993.914 251.185 991.251 257.029 987.552 261.985C983.854 266.942 979.008 270.825 973.016 273.636C967.024 276.373 959.738 277.742 951.157 277.742C945.313 277.742 939.95 276.891 935.067 275.19C930.259 273.488 926.117 270.862 922.64 267.311C919.163 263.761 916.463 259.137 914.54 253.441C912.69 247.745 911.765 240.903 911.765 232.913V155.462H932.293V233.135C932.293 238.535 932.885 243.011 934.069 246.562C935.326 250.038 936.991 252.812 939.062 254.884C941.207 256.881 943.574 258.287 946.164 259.1C948.827 259.914 951.564 260.321 954.375 260.321C963.104 260.321 970.02 258.656 975.125 255.328C980.229 251.925 983.891 247.375 986.11 241.679C988.403 235.909 989.55 229.51 989.55 222.483Z" fill="white"/>
</svg>
